# xmcd
# 
# Track frame offsets:
#     150
#     34037
#     52535
#     72505
#     94085
#     129035
#     185640
#     208517
#     233812
#     260885
#     296860
# 
# Disc length: 4386
# 
# Revision: 3
# Processed by: cddbd v1.5.2PL0 Copyright (c) Steve Scherf et al.
# Submitted via: fre:ac v1.0.17
# 
DISCID=9e11200b
DTITLE=Various Artist - 対決　～復讐するは我にあり～
DYEAR=1997
DGENRE=Rock
TTITLE0=セーターズ - 行きずりのブルース
TTITLE1=セーターズ - 里帰り
TTITLE2=セーターズ - 春の空っ風
TTITLE3=セーターズ - 春夏秋冬
TTITLE4=CHABO BAND - ムーンライト・ドライブ
TTITLE5=CHABO BAND - 遥かな手紙（ニジェールから）
TTITLE6=CHABO BAND - 打破
TTITLE7=泉谷しげる - 眠れない夜
TTITLE8=泉谷しげる - イメージの詩
TTITLE9=泉谷しげる - ハレルヤ
TTITLE10=泉谷しげる - 翼なき野郎ども
EXTD=YEAR: 1997
EXTT0=
EXTT1=
EXTT2=
EXTT3=
EXTT4=
EXTT5=
EXTT6=
EXTT7=
EXTT8=
EXTT9=
EXTT10=
PLAYORDER=
